<?xml version="1.0" encoding="UTF-8" standalone="no"?>
<!-- Created with Inkscape (http://www.inkscape.org/) -->

<svg
   width="210mm"
   height="297mm"
   viewBox="0 0 210 297"
   version="1.1"
   id="svg1"
   xml:space="preserve"
   inkscape:version="1.3 (0e150ed6c4, 2023-07-21)"
   sodipodi:docname="aas_logo.svg"
   inkscape:export-filename="aas_logo_darkblue.png"
   inkscape:export-xdpi="96"
   inkscape:export-ydpi="96"
   xmlns:inkscape="http://www.inkscape.org/namespaces/inkscape"
   xmlns:sodipodi="http://sodipodi.sourceforge.net/DTD/sodipodi-0.dtd"
   xmlns="http://www.w3.org/2000/svg"
   xmlns:svg="http://www.w3.org/2000/svg"><sodipodi:namedview
     id="namedview1"
     pagecolor="#ffffff"
     bordercolor="#000000"
     borderopacity="0.25"
     inkscape:showpageshadow="2"
     inkscape:pageopacity="0.0"
     inkscape:pagecheckerboard="0"
     inkscape:deskcolor="#d1d1d1"
     inkscape:document-units="mm"
     showgrid="true"
     inkscape:zoom="5.6568543"
     inkscape:cx="398.71984"
     inkscape:cy="414.45296"
     inkscape:window-width="3840"
     inkscape:window-height="2066"
     inkscape:window-x="2869"
     inkscape:window-y="-11"
     inkscape:window-maximized="1"
     inkscape:current-layer="g1"><inkscape:grid
       id="grid1"
       units="mm"
       originx="0"
       originy="0"
       spacingx="0.99999998"
       spacingy="1"
       empcolor="#0099e5"
       empopacity="0.30196078"
       color="#0099e5"
       opacity="0.14901961"
       empspacing="5"
       dotted="false"
       gridanglex="30"
       gridanglez="30"
       visible="true" /></sodipodi:namedview><defs
     id="defs1" /><g
     inkscape:label="Layer 1"
     inkscape:groupmode="layer"
     id="layer1"><g
       id="g1"><path
         style="fill:#011f3d;fill-opacity:1;stroke:#ffffff;stroke-width:0;stroke-dasharray:none;paint-order:markers fill stroke"
         d="m 80.989599,79.00676 8.00663,-8.006627 c 0.512678,-0.487207 0.997983,-1.000135 2.003773,-1.000135 h 37.994748 c 1.0016,0 1.45638,0.508762 2.00203,1.000429 l 8.00118,8.001177 c 0.99401,0.996896 0.99839,1.999145 0.99839,1.999145 v 22.997981 c 0,1.00149 0,1.00128 -0.99797,1.00128 h -6.00202 c -1,0 -1,0 -1,-1 V 98 c 0,-1 0,-1 -1,-2 -1,-1 -1,-1 -2,-1 H 90.994538 c -0.998173,0 -0.998173,0 -1.998173,1 -1,1 -1,1 -1,2 v 6.00001 c 0,1 9e-6,1.00004 -1,1 h -6 c -1,0 -1,0 -1,-1 l -2e-6,-22.998909 c 0,0 -0.0039,-1.009507 0.993236,-1.994341 z"
         id="path1"
         sodipodi:nodetypes="cccccccccccccccczcccccc"
         inkscape:export-filename="path1.png"
         inkscape:export-xdpi="96"
         inkscape:export-ydpi="96" /><text
         xml:space="preserve"
         style="font-size:25.4px;font-family:'Bauhaus 93';-inkscape-font-specification:'Bauhaus 93, ';fill:#ffffff;stroke:#ffffff;stroke-width:0;stroke-dasharray:none;paint-order:markers fill stroke"
         x="90.586685"
         y="95.355446"
         id="text1"><tspan
           sodipodi:role="line"
           id="tspan1"
           style="font-style:normal;font-variant:normal;font-weight:normal;font-stretch:normal;font-size:25.4px;font-family:Impact;-inkscape-font-specification:Impact;fill:#ffffff;stroke-width:0"
           x="90.586685"
           y="95.355446">AAS</tspan></text><circle
         id="path2"
         style="fill:#e6e6e6;stroke:#ffffff;stroke-width:0.264583"
         cx="157.62221"
         cy="87.370407"
         r="0" /><circle
         id="path3"
         style="fill:#e6e6e6;stroke:#ffffff;stroke-width:0.264583"
         cx="117.73958"
         cy="85.559631"
         r="0" /><text
         xml:space="preserve"
         style="font-style:normal;font-variant:normal;font-weight:normal;font-stretch:normal;font-size:25.4px;font-family:Impact;-inkscape-font-specification:Impact;fill:#e6e6e6;fill-opacity:1;stroke:#ffffff;stroke-width:0;stroke-dasharray:none;paint-order:markers fill stroke"
         x="153"
         y="86"
         id="text3"><tspan
           sodipodi:role="line"
           id="tspan3"
           style="stroke-width:0"
           x="153"
           y="86" /></text></g></g></svg>
